User Type,Username,Date,Text
,mkvghost,2012-01-29T18:03Z,"Complete name : Colombiana.Bdrip.m-720p.Dual.x.lagartish.mkv 
Format : Matroska 
File size : 2.52 GiB 
Duration : 1h 43mn 
Overall bit rate : 3 491 Kbps 
Movie name : Colombiana x lagartish 
Encoded date : UTC 2012-01-17 00:56:06 
Writing application : mkvmerge v4.8.0 ('I Got The...') creado el May 23 2011 22:30:05 
Writing library : libebml v1.2.0 + libmatroska v1.1.0 
Video
ID : 1 
Format : AVC 
Format/Info : Advanced Video Codec 
Format profile : High@L4.1 
Format settings, CABAC : Yes 
Format settings, ReFrames : 8 frames 
Codec ID : V_MPEG4/ISO/AVC 
Duration : 1h 43mn 
Bit rate : 2 595 Kbps 
Width : 1 280 pixels 
Height : 544 pixels 
Display aspect ratio : 2.35:1 
Frame rate : 25.000 fps 
Color space : YUV 
Chroma subsampling : 4:2:0 
Bit depth : 8 bits 
Scan type : Progressive 
Bits/(Pixel*Frame) : 0.149 
Stream size : 1.83 GiB (72%) 
Encoding settings : cabac=1 / ref=9 / deblock=1:-3:-3 / analyse=0x3:0x113 / me=umh / subme=10 / psy=1 / psy_rd=1.00:0.00 / mixed_ref=1 / me_range=16 / chroma_me=1 / trellis=2 / 8x8dct=1 / cqm=0 / deadzone=21,11 / fast_pskip=1 / chroma_qp_offset=-2 / threads=12 / sliced_threads=0 / nr=0 / decimate=1 / interlaced=0 / bluray_compat=0 / constrained_intra=0 / bframes=3 / b_pyramid=1 / b_adapt=1 / b_bias=0 / direct=1 / weightb=1 / open_gop=0 / weightp=2 / keyint=250 / keyint_min=25 / scenecut=40 / intra_refresh=0 / rc=2pass / mbtree=0 / bitrate=2595 / ratetol=1.0 / qcomp=0.60 / qpmin=0 / qpmax=69 / qpstep=4 / cplxblur=20.0 / qblur=0.5 / ip_ratio=1.40 / pb_ratio=1.30 / aq=1:0.80 
Language : English 
Audio #1
ID : 2 
Format : AC-3 
Format/Info : Audio Coding 3 
Mode extension : CM (complete main) 
Codec ID : A_AC3 
Duration : 1h 43mn 
Bit rate mode : Constant 
Bit rate : 448 Kbps 
Channel(s) : 6 channels 
Channel positions : Front: L C R, Side: L R, LFE 
Sampling rate : 48.0 KHz 
Bit depth : 16 bits 
Compression mode : Lossy 
Delay relative to video : 24ms 
Stream size : 332 MiB (13%) 
Language : Spanish 
Audio #2
ID : 3 
Format : AC-3 
Format/Info : Audio Coding 3 
Mode extension : CM (complete main) 
Codec ID : A_AC3 
Duration : 1h 43mn 
Bit rate mode : Constant 
Bit rate : 448 Kbps 
Channel(s) : 6 channels 
Channel positions : Front: L C R, Side: L R, LFE 
Sampling rate : 48.0 KHz 
Bit depth : 16 bits 
Compression mode : Lossy 
Stream size : 332 MiB (13%) 
Language : English 
Text #1
ID : 4 
Format : UTF-8 
Codec ID : S_TEXT/UTF8 
Codec ID/Info : UTF-8 Plain Text 
Text #2
ID : 5 
Format : UTF-8 
Codec ID : S_TEXT/UTF8 
Codec ID/Info : UTF-8 Plain Text 
Language : Spanish "
